<svg width="30" height="34" viewBox="0 0 30 34" fill="none" xmlns="http://www.w3.org/2000/svg">
<path d="M25.9722 0.296387H3.73274C3.28482 0.297479 2.84156 0.385801 2.42817 0.556325C2.01477 0.726849 1.6394 0.976214 1.32345 1.29021C1.00751 1.6042 0.757196 1.9766 0.586808 2.38626C0.416419 2.79592 0.329226 3.23486 0.330333 3.67782V25.8677C0.329226 26.3107 0.416419 26.7494 0.586808 27.1591C0.757196 27.5687 1.00751 27.9413 1.32345 28.2553C1.6394 28.5693 2.01477 28.8187 2.42817 28.9892C2.84156 29.1597 3.28482 29.248 3.73274 29.2491H22.5529L21.6742 26.214L23.7987 28.1669L25.8071 29.9983L29.3762 33.1167V3.67111C29.3767 2.77738 29.0185 1.92011 28.3802 1.28736C27.742 0.654616 26.8759 0.298151 25.9722 0.296387ZM19.5664 21.7321C19.5664 21.7321 18.9687 21.0261 18.4704 20.4C19.674 20.1198 20.7385 19.4275 21.4754 18.4455C20.8781 18.8388 20.2377 19.164 19.5664 19.4146C18.7945 19.7403 17.9872 19.9771 17.1606 20.1204C15.7387 20.3791 14.2806 20.3735 12.8608 20.1037C12.0277 19.9423 11.2112 19.7061 10.4214 19.3979C10.0048 19.2399 9.59977 19.0534 9.20924 18.84C9.16041 18.8067 9.10993 18.7918 9.05942 18.7585C9.03458 18.746 9.01231 18.7291 8.99376 18.7085C8.69578 18.542 8.5291 18.4305 8.5291 18.4305C9.23925 19.391 10.2666 20.0761 11.4333 20.3669C10.9282 20.9913 10.3221 21.7288 10.3221 21.7288C9.33589 21.7548 8.35835 21.5406 7.47556 21.1051C6.59278 20.6696 5.8319 20.0262 5.25977 19.2314C5.31386 15.9042 6.13125 12.6324 7.65035 9.66311C8.98708 8.62538 10.6165 8.02326 12.3138 7.93987L12.4821 8.1364C10.8848 8.52755 9.39431 9.26197 8.11665 10.2874C8.11665 10.2874 8.48203 10.091 9.09651 9.81127C10.2896 9.27266 11.5611 8.92377 12.8642 8.77741C12.9573 8.7581 13.052 8.74692 13.1471 8.74408C14.259 8.60068 15.3843 8.58947 16.4989 8.71075C18.252 8.90889 19.9489 9.44455 21.4939 10.2874C20.2817 9.31097 18.8735 8.60053 17.3626 8.20306L17.5949 7.93987C19.2922 8.02315 20.9216 8.62529 22.2583 9.66311C23.7774 12.6324 24.5948 15.9042 24.6489 19.2314C24.0724 20.0272 23.3076 20.671 22.4213 21.1069C21.535 21.5428 20.5541 21.7575 19.5646 21.7321H19.5664ZM11.8491 14.0735C11.4773 14.042 11.1045 14.1222 10.7796 14.3038C10.4548 14.4854 10.193 14.7597 10.0285 15.0909C9.86403 15.4222 9.80454 15.7949 9.85792 16.1601C9.91131 16.5254 10.075 16.8663 10.3276 17.1379C10.5802 17.4096 10.9099 17.5992 11.2735 17.6824C11.637 17.7655 12.0175 17.7383 12.365 17.6039C12.7126 17.4696 13.011 17.2343 13.2212 16.9294C13.4313 16.6244 13.5434 16.264 13.5427 15.8949C13.5526 15.6653 13.5166 15.436 13.4369 15.2202C13.3571 15.0043 13.2351 14.8061 13.0778 14.6369C12.9205 14.4677 12.731 14.3308 12.5202 14.2341C12.3093 14.1374 12.0813 14.0829 11.8491 14.0735ZM17.9098 14.0735C17.538 14.042 17.1652 14.1222 16.8403 14.3038C16.5154 14.4854 16.2536 14.7597 16.0892 15.0909C15.9247 15.4222 15.8653 15.7949 15.9187 16.1601C15.9721 16.5254 16.1358 16.8663 16.3884 17.1379C16.641 17.4096 16.9706 17.5992 17.3341 17.6824C17.6977 17.7655 18.0782 17.7383 18.4258 17.6039C18.7733 17.4696 19.0717 17.2343 19.2818 16.9294C19.492 16.6244 19.604 16.264 19.6034 15.8949C19.6133 15.6653 19.5774 15.436 19.4976 15.2202C19.4178 15.0043 19.2958 14.8061 19.1385 14.6369C18.9812 14.4677 18.7917 14.3308 18.5808 14.2341C18.37 14.1374 18.142 14.0829 17.9098 14.0735Z" fill="white"/>
</svg>
