<svg width="33" height="34" viewBox="0 0 33 34" fill="none" xmlns="http://www.w3.org/2000/svg">
<path d="M32.4464 1.45982L27.3448 31.7472C27.2435 32.039 27.0905 32.3021 26.8961 32.519C26.7017 32.7359 26.4704 32.9016 26.2174 33.0051C25.9644 33.1087 25.6956 33.1477 25.4287 33.1196C25.1619 33.0914 24.9033 32.9968 24.6699 32.842L17.4089 26.2915L17.3256 26.2185L12.9043 22.22L12.883 22.2086L12.8617 22.1972L12.8713 22.1243L12.9024 22.1493L12.9237 21.967C12.9237 21.967 25.9899 8.14735 26.5269 7.55205C27.0638 6.95674 26.8776 6.84707 26.8776 6.84707C26.9183 6.13088 25.9085 6.84707 25.9085 6.84707L8.59738 19.7796L1.38877 16.9238C1.38877 16.9238 0.272239 16.4679 0.169508 15.4529C0.0667768 14.4379 1.41976 13.8974 1.41976 13.8974L30.0817 0.66826C30.0817 0.66826 32.4464 -0.556456 32.4464 1.45982Z" fill="white"/>
</svg>
