<svg width="33" height="34" viewBox="0 0 33 34" fill="none" xmlns="http://www.w3.org/2000/svg">
<path d="M32.8986 4.18739C31.6903 4.85722 30.4088 5.29666 29.0965 5.49154C30.479 4.45588 31.5135 2.82677 32.0074 0.907555C30.7076 1.87256 29.2857 2.55264 27.8028 2.91815C26.8047 1.58964 25.4844 0.709731 24.0464 0.414841C22.6084 0.119951 21.1328 0.42634 19.848 1.28669C18.5632 2.14704 17.5409 3.5134 16.9392 5.17416C16.3375 6.83492 16.19 8.6975 16.5196 10.4737C13.8869 10.309 11.3114 9.45325 8.96021 7.96209C6.60903 6.47092 4.53469 4.3778 2.87198 1.81834C2.02506 3.64249 1.76561 5.80194 2.1464 7.8571C2.52719 9.91225 3.5196 11.7084 4.9216 12.8801C3.87034 12.8384 2.84225 12.4833 1.92281 11.8442V11.9476C1.92323 13.8603 2.45218 15.714 3.42001 17.1945C4.38783 18.675 5.73497 19.6912 7.2331 20.0708C6.6647 20.2637 6.07832 20.3613 5.48936 20.361C5.07107 20.361 4.65378 20.3109 4.24311 20.2115C4.66592 21.858 5.48946 23.2981 6.5986 24.3298C7.70775 25.3616 9.04695 25.9336 10.4288 25.9659C8.08364 28.2698 5.18734 29.5193 2.20584 29.5137C1.67713 29.5135 1.14885 29.4746 0.623779 29.3971C3.46965 31.6789 6.75388 32.96 10.1318 33.1061C13.5097 33.2521 16.8568 32.2579 19.8218 30.2274C22.7867 28.1969 25.2602 25.2051 26.9827 21.5661C28.7053 17.9271 29.6133 13.775 29.6115 9.54548C29.6115 9.18768 29.6051 8.83074 29.5922 8.4744C30.8891 7.30257 32.0087 5.8509 32.8986 4.18739Z" fill="white"/>
</svg>
