<svg width="18" height="18" viewBox="0 0 18 18" fill="none" xmlns="http://www.w3.org/2000/svg">
<circle cx="9" cy="8.99853" r="8" fill="white"/>
<path d="M9.00004 16.9426C13.3875 16.9426 16.9443 13.3858 16.9443 8.99833C16.9443 4.61084 13.3875 1.05408 9.00004 1.05408C4.61255 1.05408 1.05579 4.61084 1.05579 8.99833C1.05579 13.3858 4.61255 16.9426 9.00004 16.9426Z" stroke="#2C7FFC" stroke-width="1.25" stroke-miterlimit="10"/>
<circle cx="9.05577" cy="8.99852" r="4.7108" fill="white"/>
<path d="M9.0559 13.6764C11.6395 13.6764 13.7339 11.582 13.7339 8.99841C13.7339 6.41483 11.6395 4.32043 9.0559 4.32043C6.47233 4.32043 4.37793 6.41483 4.37793 8.99841C4.37793 11.582 6.47233 13.6764 9.0559 13.6764Z" stroke="#2C7FFC" stroke-width="1.25" stroke-miterlimit="10"/>
</svg>
